# xmcd
#
# Track frame offsets:
#	150
#	17135
#	34828
#	51358
#	67160
#	83478
#	101403
#	127948
#	147915
#	167163
#	181615
#	196300
#	214785
#	231258
#	250993
#	272255
#	293790
#
# Disc length: 4164 seconds
# Revision: 3
# Processed by: cddbd v1.5.2PL0 Copyright (c) Steve Scherf et al.
# Submitted via: dBpowerAMP V12.0
#
DISCID=ed104211
DTITLE=鄭秀文 - 華納超極品音色系列 - 鄭秀文 [dBS+1]
DYEAR=1997
DGENRE=Chinese Pop
TTITLE0=X派對
TTITLE1=濃情
TTITLE2=默契
TTITLE3=小心女人
TTITLE4=男仕今天你很好
TTITLE5=放不低
TTITLE6=愛的輓歌
TTITLE7=捨不得你
TTITLE8=不拖不欠
TTITLE9=秋冬愛的故事
TTITLE10=顏色...氣味...
TTITLE11=Tequila一杯
TTITLE12=問我
TTITLE13=值得
TTITLE14=依靠
TTITLE15=背叛
TTITLE16=微醺
EXTD=
EXTT0=
EXTT1=
EXTT2=
EXTT3=
EXTT4=
EXTT5=
EXTT6=
EXTT7=
EXTT8=
EXTT9=
EXTT10=
EXTT11=
EXTT12=
EXTT13=
EXTT14=
EXTT15=
EXTT16=
PLAYORDER=
